<?xml version="1.0" encoding="UTF-8" standalone="no"?>
<svg
   xmlns:dc="http://purl.org/dc/elements/1.1/"
   xmlns:cc="http://creativecommons.org/ns#"
   xmlns:rdf="http://www.w3.org/1999/02/22-rdf-syntax-ns#"
   xmlns:svg="http://www.w3.org/2000/svg"
   xmlns="http://www.w3.org/2000/svg"
   id="svg4943"
   version="1.2"
   viewBox="0 0 610.71875 347.76666"
   height="347.76666pt"
   width="610.71875pt">
  <metadata
     id="metadata5251">
    <rdf:RDF>
      <cc:Work
         rdf:about="">
        <dc:format>image/svg+xml</dc:format>
        <dc:type
           rdf:resource="http://purl.org/dc/dcmitype/StillImage" />
        <dc:title></dc:title>
      </cc:Work>
    </rdf:RDF>
  </metadata>
  <defs
     id="defs4945">
    <clipPath
       id="clip1">
      <path
         id="path4948"
         d="m 0,0.824219 183.87109,0 0,188.519531 -183.87109,0 z m 0,0" />
    </clipPath>
    <clipPath
       id="clip2">
      <path
         id="path4951"
         d="m 254,153 356.71875,0 0,194.76562 -356.71875,0 z m 0,0" />
    </clipPath>
    <clipPath
       id="clip3">
      <path
         id="path4954"
         d="m 253.87109,152.34375 356.84766,0 0,195.42187 -356.84766,0 z m 0,0" />
    </clipPath>
    <clipPath
       id="clip4">
      <path
         id="path4957"
         d="m 187,20.34375 155,0 0,269 -155,0 z m 0,0" />
    </clipPath>
    <clipPath
       id="clip5">
      <path
         id="path4960"
         d="m 334.60937,263.28125 0,-56.75 -120.73828,-85.71875 0,-73.859375 c 4.47266,-2.296875 7.53125,-6.949219 7.53125,-12.320313 0,-7.648437 -6.19531,-13.84375 -13.83984,-13.84375 -7.64844,0 -13.84766,6.195313 -13.84766,13.84375 0,5.195313 2.86719,9.722657 7.10157,12.089844 l 0,27.589844 -13.76563,16.957031 0,20.710939 13.76563,-16.953126 0,32.523436 120.73828,85.72266 0,50.00781 c -4.35157,2.33594 -7.31641,6.92578 -7.31641,12.21094 0,7.64453 6.19922,13.84375 13.84375,13.84375 7.64844,0 13.84375,-6.19922 13.84375,-13.84375 0,-5.28516 -2.96094,-9.875 -7.31641,-12.21094" />
    </clipPath>
    <clipPath
       id="clip6">
      <path
         id="path4963"
         d="m 323.80859,-28.988281 -223.0664,81.191406 104.42578,286.906245 223.07031,-81.1875 z m 0,0" />
    </clipPath>
    <linearGradient
       gradientTransform="matrix(100.9822,277.445,-277.445,100.9822,209.80949,19.0768)"
       y2="0"
       x2="1.013196"
       y1="0"
       x1="-0.020914299"
       gradientUnits="userSpaceOnUse"
       id="linear0">
      <stop
         id="stop4966"
         style="stop-color:rgb(98.431396%,74.116516%,3.529358%);stop-opacity:1;"
         offset="0" />
      <stop
         id="stop4968"
         style="stop-color:rgb(98.431396%,74.116516%,3.529358%);stop-opacity:1;"
         offset="0.5" />
      <stop
         id="stop4970"
         style="stop-color:rgb(98.431396%,74.116516%,3.529358%);stop-opacity:1;"
         offset="0.53125" />
      <stop
         id="stop4972"
         style="stop-color:rgb(98.431396%,73.919678%,3.529358%);stop-opacity:1;"
         offset="0.535156" />
      <stop
         id="stop4974"
         style="stop-color:rgb(98.431396%,73.724365%,3.529358%);stop-opacity:1;"
         offset="0.539062" />
      <stop
         id="stop4976"
         style="stop-color:rgb(98.431396%,73.724365%,3.529358%);stop-opacity:1;"
         offset="0.546875" />
      <stop
         id="stop4978"
         style="stop-color:rgb(98.431396%,73.724365%,3.72467%);stop-opacity:1;"
         offset="0.554687" />
      <stop
         id="stop4980"
         style="stop-color:rgb(98.431396%,73.527527%,3.919983%);stop-opacity:1;"
         offset="0.558594" />
      <stop
         id="stop4982"
         style="stop-color:rgb(98.431396%,73.332214%,3.921509%);stop-opacity:1;"
         offset="0.5625" />
      <stop
         id="stop4984"
         style="stop-color:rgb(98.431396%,73.135376%,3.921509%);stop-opacity:1;"
         offset="0.566406" />
      <stop
         id="stop4986"
         style="stop-color:rgb(98.431396%,72.940063%,3.921509%);stop-opacity:1;"
         offset="0.570312" />
      <stop
         id="stop4988"
         style="stop-color:rgb(98.431396%,72.743225%,3.921509%);stop-opacity:1;"
         offset="0.574219" />
      <stop
         id="stop4990"
         style="stop-color:rgb(98.431396%,72.547913%,3.921509%);stop-opacity:1;"
         offset="0.578125" />
      <stop
         id="stop4992"
         style="stop-color:rgb(98.431396%,72.351074%,4.116821%);stop-opacity:1;"
         offset="0.582031" />
      <stop
         id="stop4994"
         style="stop-color:rgb(98.431396%,72.155762%,4.31366%);stop-opacity:1;"
         offset="0.585938" />
      <stop
         id="stop4996"
         style="stop-color:rgb(98.234558%,71.958923%,4.508972%);stop-opacity:1;"
         offset="0.589844" />
      <stop
         id="stop4998"
         style="stop-color:rgb(98.039246%,71.763611%,4.704285%);stop-opacity:1;"
         offset="0.59375" />
      <stop
         id="stop5000"
         style="stop-color:rgb(98.03772%,71.566772%,4.704285%);stop-opacity:1;"
         offset="0.597656" />
      <stop
         id="stop5002"
         style="stop-color:rgb(98.03772%,71.37146%,4.705811%);stop-opacity:1;"
         offset="0.601562" />
      <stop
         id="stop5004"
         style="stop-color:rgb(98.03772%,70.979309%,4.901123%);stop-opacity:1;"
         offset="0.605469" />
      <stop
         id="stop5006"
         style="stop-color:rgb(98.03772%,70.587158%,5.097961%);stop-opacity:1;"
         offset="0.609375" />
      <stop
         id="stop5008"
         style="stop-color:rgb(98.03772%,70.195007%,5.293274%);stop-opacity:1;"
         offset="0.613281" />
      <stop
         id="stop5010"
         style="stop-color:rgb(98.03772%,69.802856%,5.490112%);stop-opacity:1;"
         offset="0.617188" />
      <stop
         id="stop5012"
         style="stop-color:rgb(98.03772%,69.410706%,5.685425%);stop-opacity:1;"
         offset="0.621094" />
      <stop
         id="stop5014"
         style="stop-color:rgb(98.03772%,69.018555%,5.882263%);stop-opacity:1;"
         offset="0.625" />
      <stop
         id="stop5016"
         style="stop-color:rgb(98.03772%,68.626404%,6.274414%);stop-opacity:1;"
         offset="0.628906" />
      <stop
         id="stop5018"
         style="stop-color:rgb(98.03772%,68.234253%,6.666565%);stop-opacity:1;"
         offset="0.632812" />
      <stop
         id="stop5020"
         style="stop-color:rgb(97.842407%,67.645264%,6.861877%);stop-opacity:1;"
         offset="0.636719" />
      <stop
         id="stop5022"
         style="stop-color:rgb(97.647095%,67.0578%,7.05719%);stop-opacity:1;"
         offset="0.640625" />
      <stop
         id="stop5024"
         style="stop-color:rgb(97.647095%,66.273499%,7.254028%);stop-opacity:1;"
         offset="0.644531" />
      <stop
         id="stop5026"
         style="stop-color:rgb(97.647095%,65.489197%,7.450867%);stop-opacity:1;"
         offset="0.648438" />
      <stop
         id="stop5028"
         style="stop-color:rgb(97.647095%,64.900208%,7.841492%);stop-opacity:1;"
         offset="0.652344" />
      <stop
         id="stop5030"
         style="stop-color:rgb(97.647095%,64.312744%,8.233643%);stop-opacity:1;"
         offset="0.65625" />
      <stop
         id="stop5032"
         style="stop-color:rgb(97.647095%,63.723755%,8.625793%);stop-opacity:1;"
         offset="0.660156" />
      <stop
         id="stop5034"
         style="stop-color:rgb(97.647095%,63.136292%,9.01947%);stop-opacity:1;"
         offset="0.664062" />
      <stop
         id="stop5036"
         style="stop-color:rgb(97.450256%,62.155151%,9.410095%);stop-opacity:1;"
         offset="0.667969" />
      <stop
         id="stop5038"
         style="stop-color:rgb(97.253418%,61.175537%,9.802246%);stop-opacity:1;"
         offset="0.671875" />
      <stop
         id="stop5040"
         style="stop-color:rgb(97.253418%,60.194397%,10.194397%);stop-opacity:1;"
         offset="0.675781" />
      <stop
         id="stop5042"
         style="stop-color:rgb(97.253418%,59.214783%,10.586548%);stop-opacity:1;"
         offset="0.679688" />
      <stop
         id="stop5044"
         style="stop-color:rgb(97.058105%,58.03833%,11.175537%);stop-opacity:1;"
         offset="0.683594" />
      <stop
         id="stop5046"
         style="stop-color:rgb(96.862793%,56.861877%,11.764526%);stop-opacity:1;"
         offset="0.6875" />
      <stop
         id="stop5048"
         style="stop-color:rgb(96.861267%,55.880737%,12.156677%);stop-opacity:1;"
         offset="0.691406" />
      <stop
         id="stop5050"
         style="stop-color:rgb(96.861267%,54.901123%,12.548828%);stop-opacity:1;"
         offset="0.695312" />
      <stop
         id="stop5052"
         style="stop-color:rgb(96.665955%,53.72467%,13.136292%);stop-opacity:1;"
         offset="0.699219" />
      <stop
         id="stop5054"
         style="stop-color:rgb(96.470642%,52.548218%,13.723755%);stop-opacity:1;"
         offset="0.703125" />
      <stop
         id="stop5056"
         style="stop-color:rgb(96.469116%,52.156067%,13.528442%);stop-opacity:1;"
         offset="0.707031" />
      <stop
         id="stop5058"
         style="stop-color:rgb(96.469116%,51.763916%,13.33313%);stop-opacity:1;"
         offset="0.710938" />
      <stop
         id="stop5060"
         style="stop-color:rgb(96.469116%,51.371765%,13.33313%);stop-opacity:1;"
         offset="0.714844" />
      <stop
         id="stop5062"
         style="stop-color:rgb(96.469116%,50.979614%,13.33313%);stop-opacity:1;"
         offset="0.71875" />
      <stop
         id="stop5064"
         style="stop-color:rgb(96.469116%,50.587463%,13.33313%);stop-opacity:1;"
         offset="0.722656" />
      <stop
         id="stop5066"
         style="stop-color:rgb(96.469116%,50.195312%,13.33313%);stop-opacity:1;"
         offset="0.726562" />
      <stop
         id="stop5068"
         style="stop-color:rgb(96.469116%,49.803162%,13.136292%);stop-opacity:1;"
         offset="0.730469" />
      <stop
         id="stop5070"
         style="stop-color:rgb(96.469116%,49.411011%,12.940979%);stop-opacity:1;"
         offset="0.734375" />
      <stop
         id="stop5072"
         style="stop-color:rgb(96.469116%,49.01886%,12.940979%);stop-opacity:1;"
         offset="0.738281" />
      <stop
         id="stop5074"
         style="stop-color:rgb(96.469116%,48.626709%,12.940979%);stop-opacity:1;"
         offset="0.742188" />
      <stop
         id="stop5076"
         style="stop-color:rgb(96.272278%,48.234558%,12.744141%);stop-opacity:1;"
         offset="0.746094" />
      <stop
         id="stop5078"
         style="stop-color:rgb(96.076965%,47.842407%,12.548828%);stop-opacity:1;"
         offset="0.75" />
      <stop
         id="stop5080"
         style="stop-color:rgb(96.076965%,47.450256%,12.548828%);stop-opacity:1;"
         offset="0.753906" />
      <stop
         id="stop5082"
         style="stop-color:rgb(96.076965%,47.058105%,12.548828%);stop-opacity:1;"
         offset="0.757812" />
      <stop
         id="stop5084"
         style="stop-color:rgb(96.076965%,46.469116%,12.548828%);stop-opacity:1;"
         offset="0.761719" />
      <stop
         id="stop5086"
         style="stop-color:rgb(96.076965%,45.881653%,12.548828%);stop-opacity:1;"
         offset="0.765625" />
      <stop
         id="stop5088"
         style="stop-color:rgb(96.076965%,45.684814%,12.548828%);stop-opacity:1;"
         offset="0.769531" />
      <stop
         id="stop5090"
         style="stop-color:rgb(96.076965%,45.489502%,12.548828%);stop-opacity:1;"
         offset="0.773438" />
      <stop
         id="stop5092"
         style="stop-color:rgb(96.076965%,44.900513%,12.35199%);stop-opacity:1;"
         offset="0.777344" />
      <stop
         id="stop5094"
         style="stop-color:rgb(96.076965%,44.313049%,12.156677%);stop-opacity:1;"
         offset="0.78125" />
      <stop
         id="stop5096"
         style="stop-color:rgb(95.881653%,43.920898%,12.156677%);stop-opacity:1;"
         offset="0.785156" />
      <stop
         id="stop5098"
         style="stop-color:rgb(95.68634%,43.528748%,12.156677%);stop-opacity:1;"
         offset="0.789062" />
      <stop
         id="stop5100"
         style="stop-color:rgb(95.684814%,43.136597%,12.156677%);stop-opacity:1;"
         offset="0.792969" />
      <stop
         id="stop5102"
         style="stop-color:rgb(95.684814%,42.744446%,12.156677%);stop-opacity:1;"
         offset="0.796875" />
      <stop
         id="stop5104"
         style="stop-color:rgb(95.684814%,42.352295%,12.156677%);stop-opacity:1;"
         offset="0.800781" />
      <stop
         id="stop5106"
         style="stop-color:rgb(95.684814%,41.960144%,12.156677%);stop-opacity:1;"
         offset="0.804688" />
      <stop
         id="stop5108"
         style="stop-color:rgb(95.684814%,41.567993%,12.156677%);stop-opacity:1;"
         offset="0.808594" />
      <stop
         id="stop5110"
         style="stop-color:rgb(95.684814%,41.175842%,12.156677%);stop-opacity:1;"
         offset="0.8125" />
      <stop
         id="stop5112"
         style="stop-color:rgb(95.684814%,40.783691%,11.959839%);stop-opacity:1;"
         offset="0.816406" />
      <stop
         id="stop5114"
         style="stop-color:rgb(95.684814%,40.391541%,11.764526%);stop-opacity:1;"
         offset="0.820313" />
      <stop
         id="stop5116"
         style="stop-color:rgb(95.684814%,39.99939%,11.764526%);stop-opacity:1;"
         offset="0.824219" />
      <stop
         id="stop5118"
         style="stop-color:rgb(95.684814%,39.607239%,11.764526%);stop-opacity:1;"
         offset="0.828125" />
      <stop
         id="stop5120"
         style="stop-color:rgb(95.487976%,39.01825%,11.764526%);stop-opacity:1;"
         offset="0.832031" />
      <stop
         id="stop5122"
         style="stop-color:rgb(95.292664%,38.430786%,11.764526%);stop-opacity:1;"
         offset="0.835938" />
      <stop
         id="stop5124"
         style="stop-color:rgb(95.292664%,38.038635%,11.764526%);stop-opacity:1;"
         offset="0.839844" />
      <stop
         id="stop5126"
         style="stop-color:rgb(95.292664%,37.646484%,11.764526%);stop-opacity:1;"
         offset="0.84375" />
      <stop
         id="stop5128"
         style="stop-color:rgb(95.292664%,37.254333%,11.764526%);stop-opacity:1;"
         offset="0.847656" />
      <stop
         id="stop5130"
         style="stop-color:rgb(95.292664%,36.862183%,11.764526%);stop-opacity:1;"
         offset="0.851562" />
      <stop
         id="stop5132"
         style="stop-color:rgb(95.292664%,36.273193%,11.764526%);stop-opacity:1;"
         offset="0.855469" />
      <stop
         id="stop5134"
         style="stop-color:rgb(95.292664%,35.68573%,11.764526%);stop-opacity:1;"
         offset="0.859375" />
      <stop
         id="stop5136"
         style="stop-color:rgb(95.292664%,35.488892%,11.567688%);stop-opacity:1;"
         offset="0.863281" />
      <stop
         id="stop5138"
         style="stop-color:rgb(95.292664%,35.293579%,11.372375%);stop-opacity:1;"
         offset="0.867188" />
      <stop
         id="stop5140"
         style="stop-color:rgb(95.097351%,34.70459%,11.372375%);stop-opacity:1;"
         offset="0.871094" />
      <stop
         id="stop5142"
         style="stop-color:rgb(94.902039%,34.117126%,11.372375%);stop-opacity:1;"
         offset="0.875" />
      <stop
         id="stop5144"
         style="stop-color:rgb(94.900513%,33.724976%,11.372375%);stop-opacity:1;"
         offset="0.878906" />
      <stop
         id="stop5146"
         style="stop-color:rgb(94.900513%,33.332825%,11.372375%);stop-opacity:1;"
         offset="0.882812" />
      <stop
         id="stop5148"
         style="stop-color:rgb(94.900513%,32.743835%,11.372375%);stop-opacity:1;"
         offset="0.886719" />
      <stop
         id="stop5150"
         style="stop-color:rgb(94.900513%,32.156372%,11.372375%);stop-opacity:1;"
         offset="0.890625" />
      <stop
         id="stop5152"
         style="stop-color:rgb(94.900513%,31.764221%,11.372375%);stop-opacity:1;"
         offset="0.894531" />
      <stop
         id="stop5154"
         style="stop-color:rgb(94.900513%,31.37207%,11.372375%);stop-opacity:1;"
         offset="0.898438" />
      <stop
         id="stop5156"
         style="stop-color:rgb(94.900513%,30.979919%,11.372375%);stop-opacity:1;"
         offset="0.902344" />
      <stop
         id="stop5158"
         style="stop-color:rgb(94.900513%,30.587769%,11.372375%);stop-opacity:1;"
         offset="0.90625" />
      <stop
         id="stop5160"
         style="stop-color:rgb(94.7052%,30.195618%,11.372375%);stop-opacity:1;"
         offset="0.910156" />
      <stop
         id="stop5162"
         style="stop-color:rgb(94.509888%,29.803467%,11.372375%);stop-opacity:1;"
         offset="0.914062" />
      <stop
         id="stop5164"
         style="stop-color:rgb(94.508362%,29.411316%,11.175537%);stop-opacity:1;"
         offset="0.917969" />
      <stop
         id="stop5166"
         style="stop-color:rgb(94.508362%,29.019165%,10.980225%);stop-opacity:1;"
         offset="0.921875" />
      <stop
         id="stop5168"
         style="stop-color:rgb(94.508362%,28.430176%,10.980225%);stop-opacity:1;"
         offset="0.925781" />
      <stop
         id="stop5170"
         style="stop-color:rgb(94.508362%,27.842712%,10.980225%);stop-opacity:1;"
         offset="0.929688" />
      <stop
         id="stop5172"
         style="stop-color:rgb(94.508362%,27.842712%,10.980225%);stop-opacity:1;"
         offset="0.9375" />
      <stop
         id="stop5174"
         style="stop-color:rgb(94.508362%,27.842712%,10.980225%);stop-opacity:1;"
         offset="1" />
    </linearGradient>
    <clipPath
       id="clip7">
      <path
         id="path5177"
         d="m 0,281 48,0 0,66.76562 -48,0 z m 0,0" />
    </clipPath>
    <clipPath
       id="clip8">
      <path
         id="path5180"
         d="m 54,281 57,0 0,66.76562 -57,0 z m 0,0" />
    </clipPath>
    <clipPath
       id="clip9">
      <path
         id="path5183"
         d="m 122,281 42,0 0,66.76562 -42,0 z m 0,0" />
    </clipPath>
    <clipPath
       id="clip10">
      <path
         id="path5186"
         d="m 180,281 57,0 0,66.76562 -57,0 z m 0,0" />
    </clipPath>
  </defs>
  <g
     transform="translate(0,0.00104644)"
     id="surface1218182">
    <g
       style="clip-rule:nonzero"
       id="g5189"
       clip-path="url(#clip1)">
      <path
         id="path5191"
         d="m 130.70312,161.96094 c -2.30859,-6.60547 -9.92578,-12.01172 -16.92187,-12.01172 l -45.921875,0 c -6.992187,0 -14.570313,5.41797 -16.828125,12.03906 l -5.222656,15.28516 c -2.253906,6.62109 -9.832032,12.03906 -16.828125,12.03906 l -20.003907,0 c -6.996093,0 -10.777343,-5.38281 -8.390624,-11.96484 L 60.09375,12.789062 C 62.472656,6.210938 70.144531,0.824219 77.144531,0.824219 l 28.316409,0 c 7,0 14.6875,5.375 17.08594,11.953125 l 60.07421,164.585936 c 2.39844,6.57031 -1.35937,11.94922 -8.35547,11.94922 l -21.28125,0 c -6.99609,0 -14.60546,-5.40625 -16.91796,-12.01172 l -5.36329,-15.33984"
         style="fill:#1e1c1c;fill-opacity:1;fill-rule:nonzero;stroke:#ffffff;stroke-width:2.26771688;stroke-linecap:butt;stroke-linejoin:miter;stroke-miterlimit:4;stroke-opacity:1" />
    </g>
    <path
       id="path5193"
       d="m 217.0625,189.3125 c 2.92187,0 5.43359,-1.02734 7.46484,-3.0625 2.02735,-2.03906 3.0586,-4.54297 3.0586,-7.45703 l 0,-167.13672 c 0,-2.917969 -1.03125,-5.421875 -3.0586,-7.460938 -2.03125,-2.03125 -4.54297,-3.0625 -7.46484,-3.0625 l -19.73047,0 c -2.91797,0 -5.47656,1.082032 -7.39062,3.113282 -1.91407,2.03125 -2.89063,4.519531 -2.89063,7.410156 l 0,167.13672 c 0,2.88672 0.97656,5.3789 2.88672,7.39453 1.91797,2.03906 4.47656,3.125 7.39453,3.125 l 19.73047,0"
       style="fill:#1e1c1c;fill-opacity:1;fill-rule:nonzero;stroke:#ffffff;stroke-width:2.26771688;stroke-linecap:butt;stroke-linejoin:miter;stroke-miterlimit:4;stroke-opacity:1" />
    <path
       id="path5195"
       d="m 285.55078,303.75781 c 0,1.87891 0.63281,3.4961 1.875,4.8125 1.26953,1.35156 2.89063,2.03516 4.8125,2.03516 l 41.96484,0 c 8.51563,0 16.53907,-1.29297 23.83985,-3.83594 7.13672,-2.45312 13.64062,-6.30469 19.33203,-11.42969 6.14844,-5.59375 10.73828,-12.33984 13.63672,-20.02343 1.55469,-3.89063 2.73437,-8.02344 3.51562,-12.30079 0.77344,-4.26171 1.16407,-8.89062 1.16407,-13.73828 0,-9.17578 -1.57422,-17.93359 -4.67969,-26.03906 -3.01563,-7.58984 -7.59375,-14.26953 -13.63672,-19.86719 -11.24609,-10.23828 -25.76953,-15.42578 -43.17188,-15.42578 l -41.96484,0 c -1.92187,0 -3.54297,0.67969 -4.80859,2.02735 -1.24219,1.3125 -1.87891,2.9375 -1.87891,4.82031 l 0,108.96484"
       style="fill:#fab805;fill-opacity:1;fill-rule:nonzero;stroke:none" />
    <g
       style="clip-rule:nonzero"
       id="g5197"
       clip-path="url(#clip2)">
      <path
         id="path5199"
         d="m 513.50781,296.82031 c -25.59765,0 -46.36328,-20.76562 -46.36328,-46.36719 0,-25.60546 20.76563,-46.35546 46.36328,-46.35546 25.60547,0 46.36328,20.75 46.36328,46.35546 0,25.60157 -20.75781,46.36719 -46.36328,46.36719 z M 394.52734,263.01562 c -0.78125,4.27735 -1.96093,8.41016 -3.51562,12.30079 -2.89844,7.68359 -7.48828,14.42968 -13.63672,20.02343 -5.69141,5.125 -12.19531,8.97657 -19.33203,11.42969 -7.30078,2.54297 -15.32422,3.83594 -23.83985,3.83594 l -41.96484,0 c -1.92187,0 -3.54297,-0.6836 -4.8125,-2.03516 -1.24219,-1.3164 -1.87109,-2.93359 -1.87109,-4.8125 l 0,-108.96484 c 0,-1.88281 0.63281,-3.50781 1.875,-4.82031 1.26562,-1.34766 2.88672,-2.02735 4.80859,-2.02735 l 41.96484,0 c 17.40235,0 31.92579,5.1875 43.17188,15.42578 6.04297,5.59766 10.62109,12.27735 13.63672,19.86719 3.10547,8.10547 4.67969,16.86328 4.67969,26.03906 0,4.84766 -0.39063,9.47657 -1.16407,13.73828 z m 215.87891,-21.10937 c -0.1875,-2.18359 -1.56641,-5.15234 -3.32813,-6.11328 -3.28906,-1.79688 -3.80468,-4.54688 -4.5039,-7.53906 -0.4961,-2.0625 -1.33203,-4.03907 -1.64844,-6.10547 -0.22266,-1.27344 -0.0859,-2.83203 0.48438,-3.94532 1.51171,-3.00781 1.92187,-6.05468 0.33203,-8.98828 -2.70703,-4.97656 -5.5,-9.9375 -8.73047,-14.58203 -1.19922,-1.73437 -3.67969,-3.53125 -5.64063,-3.57422 -3.8789,-0.13672 -5.96875,-2.24218 -8.19531,-4.75 -1.32812,-1.50781 -3.00781,-2.69922 -4.25391,-4.24218 -0.82421,-1.01563 -1.5664,-2.39063 -1.59375,-3.61719 -0.0664,-3.53125 -1.2539,-6.41406 -4.25,-8.21094 -4.76171,-2.85547 -9.53125,-5.77344 -14.5664,-8.10547 -2,-0.92969 -5.20313,-1.26562 -6.96485,-0.30469 -3.38671,1.89454 -6.19531,1.24219 -9.36718,0.10938 -1.88282,-0.67969 -3.92969,-0.82422 -5.80078,-1.52734 -1.09766,-0.40235 -2.30079,-1.21485 -2.88282,-2.1875 -1.97265,-3.25 -4.67578,-5.07813 -8.44531,-5.125 -4.90234,-0.0859 -9.80469,-0.0859 -14.69531,0.0391 -4.06641,0.10937 -7.30078,1.74609 -9.23047,5.55078 -0.72656,1.44531 -13.84375,5.1875 -15.30078,4.48828 -0.30469,-0.13281 -0.55078,-0.38281 -0.83985,-0.56641 -2.98828,-1.76171 -6.10546,-2.17968 -9.21093,-0.4375 -4.83594,2.71875 -9.76953,5.35938 -14.30078,8.53907 -1.8125,1.24218 -3.78516,3.875 -3.77344,5.86328 0.0195,3.83203 -2.00391,5.82422 -4.41797,7.99219 -1.48828,1.32812 -2.65625,3.02734 -4.22266,4.25 -1.0039,0.82031 -2.41015,1.5 -3.65234,1.53515 -3.38281,0.0547 -6.30078,1.00781 -8.05859,3.89453 -3.05079,5.03125 -6.07032,10.1211 -8.5586,15.44141 -0.88672,1.84766 -0.88672,4.83594 -0.0273,6.66797 1.2539,2.71094 1.5664,5.09375 0.72656,7.80859 -0.0391,0.1211 -0.0742,0.24219 -0.10547,0.35547 -1.14453,-5.03516 -2.63672,-9.95703 -4.47265,-14.75 -4.75782,-11.99609 -12,-22.55078 -21.58594,-31.42187 -17.625,-16.05079 -40.2461,-24.1875 -67.23438,-24.1875 l -60.13672,0 c -4.96875,0 -9.35546,1.87109 -12.67968,5.40234 -3.1875,3.37109 -4.8711,7.65234 -4.8711,12.38281 l 0,156.15625 c 0,4.72266 1.67969,9 4.85157,12.35938 3.33593,3.55078 7.73046,5.42578 12.69921,5.42578 l 60.13672,0 c 13.08985,0 25.46875,-2 36.76172,-5.9336 11.23438,-3.85937 21.47266,-9.91406 30.47266,-18.01953 9.73828,-8.86328 17.00781,-19.52734 21.61328,-31.70703 1.85547,-4.66015 3.36328,-9.54297 4.51562,-14.5625 0.71875,3.14453 1.01954,6.10547 0.42579,7.08985 -1.91407,3.09765 -2.16797,6.30468 -0.44922,9.49218 2.54297,4.71094 5.02734,9.46875 8.01172,13.86719 1.17968,1.73438 3.72656,3.84766 5.47656,3.69922 5.08984,-0.42188 7.28906,2.98828 9.98828,5.95312 0.90234,0.98047 1.94531,1.84766 2.65625,2.96094 0.76562,1.1875 1.62109,2.59375 1.72266,3.94922 0.22265,3.22266 1.32421,5.93359 4.03125,7.63281 4.71875,2.98047 9.49609,5.83594 14.37109,8.4961 3.03125,1.65234 6.23437,1.38281 9.24609,-0.40235 1.83203,-1.09765 14.86719,1.84766 16.05078,3.58985 0.31641,0.46484 0.41797,1.125 0.82032,1.42578 2.13281,1.47656 4.25,3.8164 6.54687,4.04297 5.9375,0.60156 12.01172,0.5 17.97656,0.1289 1.98047,-0.0976 4.84375,-1.38281 5.59375,-2.96484 1.88672,-3.91016 5.1875,-4.35547 8.64454,-5.11328 1.61328,-0.33985 3.17968,-1.10938 4.80859,-1.3125 1.40625,-0.16016 3.03516,-0.1875 4.28125,0.41015 3.01562,1.41016 6.03125,1.875 8.98047,0.29297 4.91797,-2.5625 9.85937,-5.17968 14.44922,-8.28125 1.8125,-1.23437 3.78515,-3.85156 3.80859,-5.82422 0.0312,-3.87109 1.85547,-6.07031 4.44141,-8.3164 1.67578,-1.42969 3.02734,-3.25 4.63672,-4.78906 0.83593,-0.78125 1.91796,-1.3125 2.08593,-1.41797 4.57032,0.16015 7.40625,-1.11328 9.15235,-3.97266 2.90625,-4.71875 5.8125,-9.50781 8.14453,-14.52344 0.92578,-2.01172 1.21875,-5.1875 0.23047,-6.98047 -1.78516,-3.28515 -1.24219,-6.02343 -0.17578,-9.09765 0.64453,-1.90235 0.79296,-3.98438 1.60546,-5.78125 0.625,-1.47656 1.64454,-3.07031 2.95313,-3.84766 2.72266,-1.59765 4.58203,-3.61719 4.63672,-6.82422 0.0898,-5.78125 0.26953,-11.58203 -0.19922,-17.33984"
         style="fill:#1e1c1c;fill-opacity:1;fill-rule:nonzero;stroke:none" />
    </g>
    <g
       style="clip-rule:nonzero"
       id="g5201"
       clip-path="url(#clip3)">
      <path
         id="path5203"
         d="m 513.50781,296.82031 c -25.59765,0 -46.36328,-20.76562 -46.36328,-46.36719 0,-25.60546 20.76563,-46.35546 46.36328,-46.35546 25.60547,0 46.36328,20.75 46.36328,46.35546 0,25.60157 -20.75781,46.36719 -46.36328,46.36719 z M 394.52734,263.01562 c -0.78125,4.27735 -1.96093,8.41016 -3.51562,12.30079 -2.89844,7.68359 -7.48828,14.42968 -13.63672,20.02343 -5.69141,5.125 -12.19531,8.97657 -19.33203,11.42969 -7.30078,2.54297 -15.32422,3.83594 -23.83985,3.83594 l -41.96484,0 c -1.92187,0 -3.54297,-0.6836 -4.8125,-2.03516 -1.24219,-1.3164 -1.87109,-2.93359 -1.87109,-4.8125 l 0,-108.96484 c 0,-1.88281 0.63281,-3.50781 1.875,-4.82031 1.26562,-1.34766 2.88672,-2.02735 4.80859,-2.02735 l 41.96484,0 c 17.40235,0 31.92579,5.1875 43.17188,15.42578 6.04297,5.59766 10.62109,12.27735 13.63672,19.86719 3.10547,8.10547 4.67969,16.86328 4.67969,26.03906 0,4.84766 -0.39063,9.47657 -1.16407,13.73828 z m 215.87891,-21.10937 c -0.1875,-2.18359 -1.56641,-5.15234 -3.32813,-6.11328 -3.28906,-1.79688 -3.80468,-4.54688 -4.5039,-7.53906 -0.4961,-2.0625 -1.33203,-4.03907 -1.64844,-6.10547 -0.22266,-1.27344 -0.0859,-2.83203 0.48438,-3.94532 1.51171,-3.00781 1.92187,-6.05468 0.33203,-8.98828 -2.70703,-4.97656 -5.5,-9.9375 -8.73047,-14.58203 -1.19922,-1.73437 -3.67969,-3.53125 -5.64063,-3.57422 -3.8789,-0.13672 -5.96875,-2.24218 -8.19531,-4.75 -1.32812,-1.50781 -3.00781,-2.69922 -4.25391,-4.24218 -0.82421,-1.01563 -1.5664,-2.39063 -1.59375,-3.61719 -0.0664,-3.53125 -1.2539,-6.41406 -4.25,-8.21094 -4.76171,-2.85547 -9.53125,-5.77344 -14.5664,-8.10547 -2,-0.92969 -5.20313,-1.26562 -6.96485,-0.30469 -3.38671,1.89454 -6.19531,1.24219 -9.36718,0.10938 -1.88282,-0.67969 -3.92969,-0.82422 -5.80078,-1.52734 -1.09766,-0.40235 -2.30079,-1.21485 -2.88282,-2.1875 -1.97265,-3.25 -4.67578,-5.07813 -8.44531,-5.125 -4.90234,-0.0859 -9.80469,-0.0859 -14.69531,0.0391 -4.06641,0.10937 -7.30078,1.74609 -9.23047,5.55078 -0.72656,1.44531 -13.84375,5.1875 -15.30078,4.48828 -0.30469,-0.13281 -0.55078,-0.38281 -0.83985,-0.56641 -2.98828,-1.76171 -6.10546,-2.17968 -9.21093,-0.4375 -4.83594,2.71875 -9.76953,5.35938 -14.30078,8.53907 -1.8125,1.24218 -3.78516,3.875 -3.77344,5.86328 0.0195,3.83203 -2.00391,5.82422 -4.41797,7.99219 -1.48828,1.32812 -2.65625,3.02734 -4.22266,4.25 -1.0039,0.82031 -2.41015,1.5 -3.65234,1.53515 -3.38281,0.0547 -6.30078,1.00781 -8.05859,3.89453 -3.05079,5.03125 -6.07032,10.1211 -8.5586,15.44141 -0.88672,1.84766 -0.88672,4.83594 -0.0273,6.66797 1.2539,2.71094 1.5664,5.09375 0.72656,7.80859 -0.0391,0.1211 -0.0742,0.24219 -0.10547,0.35547 -1.14453,-5.03516 -2.63672,-9.95703 -4.47265,-14.75 -4.75782,-11.99609 -12,-22.55078 -21.58594,-31.42187 -17.625,-16.05079 -40.2461,-24.1875 -67.23438,-24.1875 l -60.13672,0 c -4.96875,0 -9.35546,1.87109 -12.67968,5.40234 -3.1875,3.37109 -4.8711,7.65234 -4.8711,12.38281 l 0,156.15625 c 0,4.72266 1.67969,9 4.85157,12.35938 3.33593,3.55078 7.73046,5.42578 12.69921,5.42578 l 60.13672,0 c 13.08985,0 25.46875,-2 36.76172,-5.9336 11.23438,-3.85937 21.47266,-9.91406 30.47266,-18.01953 9.73828,-8.86328 17.00781,-19.52734 21.61328,-31.70703 1.85547,-4.66015 3.36328,-9.54297 4.51562,-14.5625 0.71875,3.14453 1.01954,6.10547 0.42579,7.08985 -1.91407,3.09765 -2.16797,6.30468 -0.44922,9.49218 2.54297,4.71094 5.02734,9.46875 8.01172,13.86719 1.17968,1.73438 3.72656,3.84766 5.47656,3.69922 5.08984,-0.42188 7.28906,2.98828 9.98828,5.95312 0.90234,0.98047 1.94531,1.84766 2.65625,2.96094 0.76562,1.1875 1.62109,2.59375 1.72266,3.94922 0.22265,3.22266 1.32421,5.93359 4.03125,7.63281 4.71875,2.98047 9.49609,5.83594 14.37109,8.4961 3.03125,1.65234 6.23437,1.38281 9.24609,-0.40235 1.83203,-1.09765 14.86719,1.84766 16.05078,3.58985 0.31641,0.46484 0.41797,1.125 0.82032,1.42578 2.13281,1.47656 4.25,3.8164 6.54687,4.04297 5.9375,0.60156 12.01172,0.5 17.97656,0.1289 1.98047,-0.0976 4.84375,-1.38281 5.59375,-2.96484 1.88672,-3.91016 5.1875,-4.35547 8.64454,-5.11328 1.61328,-0.33985 3.17968,-1.10938 4.80859,-1.3125 1.40625,-0.16016 3.03516,-0.1875 4.28125,0.41015 3.01562,1.41016 6.03125,1.875 8.98047,0.29297 4.91797,-2.5625 9.85937,-5.17968 14.44922,-8.28125 1.8125,-1.23437 3.78515,-3.85156 3.80859,-5.82422 0.0312,-3.87109 1.85547,-6.07031 4.44141,-8.3164 1.67578,-1.42969 3.02734,-3.25 4.63672,-4.78906 0.83593,-0.78125 1.91796,-1.3125 2.08593,-1.41797 4.57032,0.16015 7.40625,-1.11328 9.15235,-3.97266 2.90625,-4.71875 5.8125,-9.50781 8.14453,-14.52344 0.92578,-2.01172 1.21875,-5.1875 0.23047,-6.98047 -1.78516,-3.28515 -1.24219,-6.02343 -0.17578,-9.09765 0.64453,-1.90235 0.79296,-3.98438 1.60546,-5.78125 0.625,-1.47656 1.64454,-3.07031 2.95313,-3.84766 2.72266,-1.59765 4.58203,-3.61719 4.63672,-6.82422 0.0898,-5.78125 0.26953,-11.58203 -0.19922,-17.33984"
         style="fill:none;stroke:#ffffff;stroke-width:2.26771688;stroke-linecap:butt;stroke-linejoin:miter;stroke-miterlimit:4;stroke-opacity:1" />
    </g>
    <path
       id="path5205"
       d="m 332.08984,287.31641 -46.53906,0 0,16.4414 c 0,1.87891 0.63281,3.4961 1.875,4.8125 1.26953,1.35156 2.89063,2.03516 4.8125,2.03516 l 41.96484,0 c 8.51563,0 16.53907,-1.29297 23.83985,-3.83594 7.13672,-2.45312 13.64062,-6.30469 19.33203,-11.42969 6.14844,-5.59375 10.73828,-12.33984 13.63672,-20.02343 0.90234,-2.25782 1.66015,-4.60938 2.30859,-7.01172 -7.46875,5.65625 -15.65625,10.05468 -24.46875,13.08203 -11.29297,3.92969 -23.67187,5.92969 -36.76172,5.92969"
       style="fill:#ee451e;fill-opacity:1;fill-rule:nonzero;stroke:none" />
    <g
       style="clip-rule:nonzero"
       id="g5207"
       clip-path="url(#clip4)">
      <g
         style="clip-rule:nonzero"
         id="g5209"
         clip-path="url(#clip5)">
        <g
           style="clip-rule:nonzero"
           id="g5211"
           clip-path="url(#clip6)">
          <path
             id="path5213"
             d="m 323.80859,-28.988281 -223.0664,81.191406 104.42578,286.910155 223.0664,-81.19141 z m 0,0"
             style="fill:url(#linear0);fill-rule:nonzero;stroke:none" />
        </g>
      </g>
    </g>
    <path
       id="path5215"
       d="m 152.38672,175.79297 14.14844,0 -66.796879,-159.929689 -14.125,0 -36.617187,89.371099 31.339844,0 c 2.324218,4.38671 6.933593,7.375 12.238281,7.375 7.648441,0 13.847661,-6.19922 13.847661,-13.843755 0,-7.644531 -6.19922,-13.84375 -13.847661,-13.84375 -5.261719,0 -9.835938,2.9375 -12.179688,7.257813 l -11.945312,0 24.273437,-59.242188 38.371094,91.87891 -111.511719,0 -4.722656,13.05468 121.687495,0 15.83985,37.92188"
       style="fill:#fab805;fill-opacity:1;fill-rule:nonzero;stroke:none" />
    <path
       id="path5217"
       d="m 5.90625,225.79687 10.527344,0 0,48.53516 -10.527344,0 z m 0,0"
       style="fill:#171717;fill-opacity:1;fill-rule:nonzero;stroke:#ffffff;stroke-width:2.26771688;stroke-linecap:butt;stroke-linejoin:miter;stroke-miterlimit:4;stroke-opacity:1" />
    <path
       id="path5219"
       d="m 66.488281,274.73828 c -5.910156,0 -10.757812,-1.91016 -14.542969,-5.31641 -5.453124,-4.90625 -5.300781,-10.97656 -5.300781,-19.35937 0,-8.38281 -0.152343,-14.44922 5.300781,-19.35938 3.785157,-3.41015 8.632813,-5.3125 14.542969,-5.3125 10.066407,0 17.945313,5.17579 19.839844,15.33204 l -10.679687,0 c -1.058594,-3.88282 -3.785157,-6.88282 -9.085938,-6.88282 -2.878906,0 -5.226562,0.95313 -6.742188,2.51953 -2.042968,2.04688 -2.648437,4.36329 -2.648437,13.70313 0,9.33984 0.605469,11.65625 2.648437,13.69922 1.515626,1.57031 3.863282,2.52344 6.742188,2.52344 5.300781,0 8.027344,-2.9961 9.085938,-6.88282 l 10.679687,0 c -1.894531,10.15625 -9.847656,15.33594 -19.839844,15.33594"
       style="fill:#171717;fill-opacity:1;fill-rule:nonzero;stroke:#ffffff;stroke-width:2.26771688;stroke-linecap:butt;stroke-linejoin:miter;stroke-miterlimit:4;stroke-opacity:1" />
    <path
       id="path5221"
       d="m 135.32031,234.25 -9.92187,0 0,12.8125 9.92187,0 c 4.61719,0 7.64844,-2.65625 7.64844,-6.40625 0,-3.75 -3.03125,-6.40625 -7.64844,-6.40625 z m 8.17578,40.08203 -10.52343,-19.36328 -7.57422,0 0,19.36328 -10.52344,0 0,-48.53516 21.125,0 c 10.98047,0 17.49219,6.75 17.49219,14.85938 0,6.81641 -4.61719,11.04297 -9.84375,12.74609 l 12.04297,20.92969 -12.19532,0"
       style="fill:#171717;fill-opacity:1;fill-rule:nonzero;stroke:#ffffff;stroke-width:2.26771688;stroke-linecap:butt;stroke-linejoin:miter;stroke-miterlimit:4;stroke-opacity:1" />
    <path
       id="path5223"
       d="m 201.95703,240.11328 -6.81641,17.65234 13.40235,0 z m 12.57031,34.21875 -3.17968,-8.58984 -19.16016,0 -3.25391,8.58984 -10.98047,0 19.60938,-48.53516 8.25391,0 19.6914,48.53516 -10.98047,0"
       style="fill:#171717;fill-opacity:1;fill-rule:nonzero;stroke:#ffffff;stroke-width:2.26771688;stroke-linecap:butt;stroke-linejoin:miter;stroke-miterlimit:4;stroke-opacity:1" />
    <path
       id="path5225"
       d="m 4.769531,343.28906 0,-4.36328 21.28125,-24.33594 c 2.042969,-2.38281 3.027344,-4.5 3.027344,-7.15625 0,-5.25 -3.484375,-8.72656 -9.390625,-8.72656 -4.996094,0 -9.390625,2.52344 -9.390625,8.79297 l -5.449219,0 c 0,-7.63281 5.828125,-13.15234 14.839844,-13.15234 8.863281,0 14.84375,5.10937 14.84375,13.08593 0,3.88672 -1.363281,6.40625 -4.316406,9.81641 l -18.855469,21.67578 23.171875,0 0,4.36328 -29.761719,0"
       style="fill:#171717;fill-opacity:1;fill-rule:nonzero;stroke:none" />
    <g
       style="clip-rule:nonzero"
       id="g5227"
       clip-path="url(#clip7)">
      <path
         id="path5229"
         d="m 4.769531,343.28906 0,-4.36328 21.28125,-24.33594 c 2.042969,-2.38281 3.027344,-4.5 3.027344,-7.15625 0,-5.25 -3.484375,-8.72656 -9.390625,-8.72656 -4.996094,0 -9.390625,2.52344 -9.390625,8.79297 l -5.449219,0 c 0,-7.63281 5.828125,-13.15234 14.839844,-13.15234 8.863281,0 14.84375,5.10937 14.84375,13.08593 0,3.88672 -1.363281,6.40625 -4.316406,9.81641 l -18.855469,21.67578 23.171875,0 0,4.36328 -29.761719,0"
         style="fill:none;stroke:#ffffff;stroke-width:2.26771688;stroke-linecap:butt;stroke-linejoin:miter;stroke-miterlimit:4;stroke-opacity:1" />
    </g>
    <path
       id="path5231"
       d="m 91.855469,307.98047 c 0,-5.32031 -3.335938,-9.27344 -9.316407,-9.27344 -5.984374,0 -9.3125,3.95313 -9.3125,9.27344 l 0,22.08203 c 0,5.32031 3.328126,9.26953 9.3125,9.26953 5.980469,0 9.316407,-3.94922 9.316407,-9.26953 z m -9.316407,35.71484 c -8.40625,0 -14.765624,-5.3164 -14.765624,-13.35937 l 0,-22.62891 c 0,-8.04687 6.359374,-13.35937 14.765624,-13.35937 8.40625,0 14.765626,5.3125 14.765626,13.35937 l 0,22.62891 c 0,8.04297 -6.359376,13.35937 -14.765626,13.35937"
       style="fill:#171717;fill-opacity:1;fill-rule:nonzero;stroke:none" />
    <g
       style="clip-rule:nonzero"
       id="g5233"
       clip-path="url(#clip8)">
      <path
         id="path5235"
         d="m 91.855469,307.98047 c 0,-5.32031 -3.335938,-9.27344 -9.316407,-9.27344 -5.984374,0 -9.3125,3.95313 -9.3125,9.27344 l 0,22.08203 c 0,5.32031 3.328126,9.26953 9.3125,9.26953 5.980469,0 9.316407,-3.94922 9.316407,-9.26953 z m -9.316407,35.71484 c -8.40625,0 -14.765624,-5.3164 -14.765624,-13.35937 l 0,-22.62891 c 0,-8.04687 6.359374,-13.35937 14.765624,-13.35937 8.40625,0 14.765626,5.3125 14.765626,13.35937 l 0,22.62891 c 0,8.04297 -6.359376,13.35937 -14.765626,13.35937"
         style="fill:none;stroke:#ffffff;stroke-width:2.26771688;stroke-linecap:butt;stroke-linejoin:miter;stroke-miterlimit:4;stroke-opacity:1" />
    </g>
    <path
       id="path5237"
       d="m 145.46484,343.28906 0,-43.08203 -10.07031,7.97656 0,-5.58984 10.07031,-7.83984 5.45313,0 0,48.53515 -5.45313,0"
       style="fill:#171717;fill-opacity:1;fill-rule:nonzero;stroke:none" />
    <g
       style="clip-rule:nonzero"
       id="g5239"
       clip-path="url(#clip9)">
      <path
         id="path5241"
         d="m 145.46484,343.28906 0,-43.08203 -10.07031,7.97656 0,-5.58984 10.07031,-7.83984 5.45313,0 0,48.53515 -5.45313,0"
         style="fill:none;stroke:#ffffff;stroke-width:2.26771688;stroke-linecap:butt;stroke-linejoin:miter;stroke-miterlimit:4;stroke-opacity:1" />
    </g>
    <path
       id="path5243"
       d="m 208.69531,298.70703 c -5.75781,0 -9.46875,3.88672 -9.46875,9.81641 0,5.38672 3.25781,9.8164 9.46875,9.8164 5.75391,0 9.54297,-3.8164 9.54297,-9.8164 0,-5.92969 -3.78906,-9.81641 -9.54297,-9.81641 z m 11.58594,20.51953 -13.25391,24.0625 -5.67968,0 12.11718,-21.8164 c -1.66406,0.68359 -3.63281,1.02343 -5.7539,1.02343 -8.40625,0 -13.9336,-5.79297 -13.9336,-13.76953 0,-8.24609 5.75391,-14.3789 14.91797,-14.3789 9.16016,0 14.99219,5.58593 14.99219,13.97265 0,3.47656 -1.13281,6.81641 -3.40625,10.90625"
       style="fill:#171717;fill-opacity:1;fill-rule:nonzero;stroke:none" />
    <g
       style="clip-rule:nonzero"
       id="g5245"
       clip-path="url(#clip10)">
      <path
         id="path5247"
         d="m 208.69531,298.70703 c -5.75781,0 -9.46875,3.88672 -9.46875,9.81641 0,5.38672 3.25781,9.8164 9.46875,9.8164 5.75391,0 9.54297,-3.8164 9.54297,-9.8164 0,-5.92969 -3.78906,-9.81641 -9.54297,-9.81641 z m 11.58594,20.51953 -13.25391,24.0625 -5.67968,0 12.11718,-21.8164 c -1.66406,0.68359 -3.63281,1.02343 -5.7539,1.02343 -8.40625,0 -13.9336,-5.79297 -13.9336,-13.76953 0,-8.24609 5.75391,-14.3789 14.91797,-14.3789 9.16016,0 14.99219,5.58593 14.99219,13.97265 0,3.47656 -1.13281,6.81641 -3.40625,10.90625"
         style="fill:none;stroke:#ffffff;stroke-width:2.26771688;stroke-linecap:butt;stroke-linejoin:miter;stroke-miterlimit:4;stroke-opacity:1" />
    </g>
  </g>
</svg>
